<svg width="39" height="15" viewBox="0 0 39 15" fill="none" xmlns="http://www.w3.org/2000/svg">
<path d="M24.1509 11.4258H23.0709V8.16578H19.6609V11.4258H18.5809V4.28578H19.6609V7.24578H23.0709V4.28578H24.1509V11.4258ZM26.5013 6.03578V11.4258H25.4413V6.03578H26.5013ZM25.9813 3.98578C26.1413 3.98578 26.2813 4.03245 26.4013 4.12578C26.5213 4.21911 26.5813 4.37578 26.5813 4.59578C26.5813 4.80911 26.5213 4.96578 26.4013 5.06578C26.2813 5.15911 26.1413 5.20578 25.9813 5.20578C25.808 5.20578 25.6613 5.15911 25.5413 5.06578C25.428 4.96578 25.3713 4.80911 25.3713 4.59578C25.3713 4.37578 25.428 4.21911 25.5413 4.12578C25.6613 4.03245 25.808 3.98578 25.9813 3.98578ZM29.5159 11.5258C28.8693 11.5258 28.3459 11.2924 27.9459 10.8258C27.5526 10.3591 27.3559 9.66578 27.3559 8.74578C27.3559 7.81911 27.5559 7.11911 27.9559 6.64578C28.3559 6.17245 28.8826 5.93578 29.5359 5.93578C29.8093 5.93578 30.0459 5.97245 30.2459 6.04578C30.4526 6.11245 30.6293 6.20578 30.7759 6.32578C30.9293 6.44578 31.0593 6.57911 31.1659 6.72578H31.2259C31.2126 6.63245 31.1959 6.49911 31.1759 6.32578C31.1559 6.14578 31.1459 5.98578 31.1459 5.84578V3.82578H32.2059V11.4258H31.3759L31.1959 10.7058H31.1459C31.0459 10.8591 30.9193 10.9991 30.7659 11.1258C30.6193 11.2458 30.4426 11.3424 30.2359 11.4158C30.0293 11.4891 29.7893 11.5258 29.5159 11.5258ZM29.7659 10.6558C30.2859 10.6558 30.6526 10.5124 30.8659 10.2258C31.0793 9.93245 31.1859 9.49578 31.1859 8.91578V8.75578C31.1859 8.12245 31.0826 7.63911 30.8759 7.30578C30.6759 6.97245 30.3026 6.80578 29.7559 6.80578C29.3226 6.80578 28.9959 6.98245 28.7759 7.33578C28.5559 7.68245 28.4459 8.15911 28.4459 8.76578C28.4459 9.37245 28.5559 9.83911 28.7759 10.1658C28.9959 10.4924 29.3259 10.6558 29.7659 10.6558ZM35.4871 5.93578C35.9604 5.93578 36.3671 6.03578 36.7071 6.23578C37.0471 6.42911 37.3071 6.70911 37.4871 7.07578C37.6738 7.44245 37.7671 7.87578 37.7671 8.37578V8.95578H34.1471C34.1604 9.50911 34.3038 9.93245 34.5771 10.2258C34.8571 10.5191 35.2471 10.6658 35.7471 10.6658C36.0938 10.6658 36.4004 10.6358 36.6671 10.5758C36.9404 10.5091 37.2204 10.4124 37.5071 10.2858V11.1658C37.2404 11.2858 36.9671 11.3758 36.6871 11.4358C36.4138 11.4958 36.0871 11.5258 35.7071 11.5258C35.1871 11.5258 34.7271 11.4224 34.3271 11.2158C33.9271 11.0091 33.6138 10.7024 33.3871 10.2958C33.1671 9.88245 33.0571 9.37578 33.0571 8.77578C33.0571 8.16911 33.1571 7.65578 33.3571 7.23578C33.5638 6.81578 33.8471 6.49578 34.2071 6.27578C34.5738 6.04911 35.0004 5.93578 35.4871 5.93578ZM35.4871 6.75578C35.1071 6.75578 34.8004 6.87911 34.5671 7.12578C34.3404 7.37245 34.2071 7.72245 34.1671 8.17578H36.7071C36.7071 7.89578 36.6638 7.64911 36.5771 7.43578C36.4904 7.22245 36.3571 7.05578 36.1771 6.93578C35.9971 6.81578 35.7671 6.75578 35.4871 6.75578Z" fill="#9E9E9E"/>
<path d="M13.4352 0.787109L10.4964 3.96787C9.60729 3.52746 8.65787 3.23384 7.69332 3.23384C4.34771 3.23384 1.52954 6.25151 0.595181 7.37701C0.399263 7.60531 0.399263 7.96418 0.595181 8.19255C1.13771 8.845 2.34334 10.1337 3.91066 11.096L2.01179 13.1513L2.85574 14.0647L14.2791 1.70056L13.4352 0.787109ZM7.91941 6.75717C7.85915 6.75717 7.78376 6.74087 7.70837 6.74087C7.18095 6.74087 6.75895 7.19754 6.75895 7.76848C6.75895 7.84999 6.75895 7.93158 6.77407 7.99686L5.34235 9.54643C5.02587 9.04077 4.82996 8.43723 4.82996 7.76848C4.82996 6.03944 6.12601 4.63664 7.72349 4.63664C8.34134 4.63664 8.89893 4.84869 9.36616 5.19124L7.91941 6.75717Z" fill="#9E9E9E"/>
<path d="M15.0362 7.55445C14.5811 7.09763 13.7022 6.27537 12.6036 5.5293L10.6261 7.44786C10.6574 7.61538 10.6731 7.78283 10.6731 7.95035C10.6731 9.56439 9.3234 10.8739 7.65979 10.8739C7.48718 10.8739 7.3145 10.8586 7.14189 10.8282L5.98047 11.955C6.51408 12.092 7.07912 12.1681 7.65979 12.1681C11.1126 12.1681 14.0475 9.41206 15.0362 8.36144C15.256 8.11779 15.256 7.78283 15.0362 7.55445Z" fill="#9E9E9E"/>
</svg>
