<svg width="43" height="15" viewBox="0 0 43 15" fill="none" xmlns="http://www.w3.org/2000/svg">
<path d="M7.05748 2.94727C4.05328 2.94727 1.4877 4.86571 0.448242 7.57373C1.4877 10.2817 4.05328 12.2002 7.05748 12.2002C10.0617 12.2002 12.6273 10.2817 13.6667 7.57373C12.6273 4.86571 10.0617 2.94727 7.05748 2.94727ZM7.05748 10.6581C5.39916 10.6581 4.05328 9.27627 4.05328 7.57373C4.05328 5.87119 5.39916 4.48942 7.05748 4.48942C8.7158 4.48942 10.0617 5.87119 10.0617 7.57373C10.0617 9.27627 8.7158 10.6581 7.05748 10.6581ZM7.05748 5.72314C6.06008 5.72314 5.25496 6.54976 5.25496 7.57373C5.25496 8.5977 6.06008 9.42432 7.05748 9.42432C8.05488 9.42432 8.86001 8.5977 8.86001 7.57373C8.86001 6.54976 8.05488 5.72314 7.05748 5.72314Z" fill="black" fill-opacity="0.38"/>
<path d="M22.6809 9.49578C22.6809 9.92245 22.5775 10.2858 22.3709 10.5858C22.1642 10.8858 21.8675 11.1191 21.4809 11.2858C21.0942 11.4458 20.6342 11.5258 20.1009 11.5258C19.8409 11.5258 19.5909 11.5091 19.3509 11.4758C19.1109 11.4491 18.8875 11.4091 18.6809 11.3558C18.4742 11.3024 18.2909 11.2358 18.1309 11.1558V10.1358C18.3975 10.2558 18.7109 10.3658 19.0709 10.4658C19.4309 10.5591 19.7975 10.6058 20.1709 10.6058C20.4909 10.6058 20.7575 10.5624 20.9709 10.4758C21.1842 10.3891 21.3442 10.2691 21.4509 10.1158C21.5575 9.96245 21.6109 9.78245 21.6109 9.57578C21.6109 9.35578 21.5542 9.17245 21.4409 9.02578C21.3342 8.87245 21.1642 8.73245 20.9309 8.60578C20.7042 8.47245 20.3975 8.33245 20.0109 8.18578C19.7442 8.08578 19.5009 7.97578 19.2809 7.85578C19.0675 7.72911 18.8775 7.58245 18.7109 7.41578C18.5509 7.24911 18.4275 7.05578 18.3409 6.83578C18.2542 6.61578 18.2109 6.35911 18.2109 6.06578C18.2109 5.67245 18.3075 5.33578 18.5009 5.05578C18.7009 4.77578 18.9742 4.56245 19.3209 4.41578C19.6675 4.26245 20.0709 4.18578 20.5309 4.18578C20.9175 4.18578 21.2742 4.22578 21.6009 4.30578C21.9342 4.37911 22.2509 4.48245 22.5509 4.61578L22.2109 5.50578C21.9375 5.39245 21.6609 5.29911 21.3809 5.22578C21.1009 5.15245 20.8075 5.11578 20.5009 5.11578C20.2342 5.11578 20.0109 5.15578 19.8309 5.23578C19.6509 5.31578 19.5142 5.42578 19.4209 5.56578C19.3342 5.70578 19.2909 5.86911 19.2909 6.05578C19.2909 6.27578 19.3409 6.45911 19.4409 6.60578C19.5409 6.75245 19.7009 6.88911 19.9209 7.01578C20.1409 7.13578 20.4309 7.26911 20.7909 7.41578C21.1909 7.56911 21.5309 7.73578 21.8109 7.91578C22.0975 8.09578 22.3142 8.31245 22.4609 8.56578C22.6075 8.81245 22.6809 9.12245 22.6809 9.49578ZM24.5189 5.85578C24.5189 6.02245 24.5122 6.18911 24.4989 6.35578C24.4856 6.52245 24.4722 6.65911 24.4589 6.76578H24.5289C24.6422 6.57911 24.7822 6.42578 24.9489 6.30578C25.1222 6.18578 25.3122 6.09578 25.5189 6.03578C25.7322 5.97578 25.9489 5.94578 26.1689 5.94578C26.5956 5.94578 26.9522 6.01578 27.2389 6.15578C27.5322 6.28911 27.7522 6.50245 27.8989 6.79578C28.0522 7.08245 28.1289 7.45578 28.1289 7.91578V11.4258H27.0789V8.06578C27.0789 7.64578 26.9889 7.33245 26.8089 7.12578C26.6356 6.91245 26.3556 6.80578 25.9689 6.80578C25.6022 6.80578 25.3122 6.87911 25.0989 7.02578C24.8922 7.17245 24.7422 7.38911 24.6489 7.67578C24.5622 7.95578 24.5189 8.30245 24.5189 8.71578V11.4258H23.4589V3.82578H24.5189V5.85578ZM34.0077 8.72578C34.0077 9.17245 33.9477 9.56911 33.8277 9.91578C33.7077 10.2624 33.5377 10.5558 33.3177 10.7958C33.0977 11.0358 32.8311 11.2191 32.5177 11.3458C32.2044 11.4658 31.8511 11.5258 31.4577 11.5258C31.0977 11.5258 30.7644 11.4658 30.4577 11.3458C30.1511 11.2191 29.8844 11.0358 29.6577 10.7958C29.4377 10.5558 29.2644 10.2624 29.1377 9.91578C29.0111 9.56911 28.9477 9.16911 28.9477 8.71578C28.9477 8.12245 29.0477 7.61911 29.2477 7.20578C29.4544 6.79245 29.7477 6.47911 30.1277 6.26578C30.5144 6.04578 30.9677 5.93578 31.4877 5.93578C31.9811 5.93578 32.4144 6.04578 32.7877 6.26578C33.1677 6.47911 33.4644 6.79245 33.6777 7.20578C33.8977 7.61911 34.0077 8.12578 34.0077 8.72578ZM30.0377 8.72578C30.0377 9.12578 30.0877 9.47245 30.1877 9.76578C30.2877 10.0524 30.4444 10.2724 30.6577 10.4258C30.8711 10.5791 31.1444 10.6558 31.4777 10.6558C31.8111 10.6558 32.0844 10.5791 32.2977 10.4258C32.5111 10.2724 32.6677 10.0524 32.7677 9.76578C32.8677 9.47245 32.9177 9.12578 32.9177 8.72578C32.9177 8.31245 32.8644 7.96578 32.7577 7.68578C32.6577 7.40578 32.5011 7.19245 32.2877 7.04578C32.0811 6.89245 31.8077 6.81578 31.4677 6.81578C30.9677 6.81578 30.6044 6.98245 30.3777 7.31578C30.1511 7.64911 30.0377 8.11911 30.0377 8.72578ZM38.2962 8.72578C38.2628 8.59245 38.2228 8.44578 38.1762 8.28578C38.1362 8.12578 38.0962 7.96578 38.0562 7.80578C38.0162 7.63911 37.9795 7.48578 37.9462 7.34578C37.9128 7.20578 37.8862 7.09578 37.8662 7.01578H37.8262C37.8128 7.09578 37.7895 7.20578 37.7562 7.34578C37.7295 7.48578 37.6962 7.63911 37.6562 7.80578C37.6162 7.96578 37.5762 8.12911 37.5362 8.29578C37.4962 8.45578 37.4528 8.60245 37.4062 8.73578L36.6062 11.4158H35.4262L33.9362 6.02578H35.0162L35.7162 8.75578C35.7695 8.94245 35.8162 9.13911 35.8562 9.34578C35.9028 9.55245 35.9428 9.75245 35.9762 9.94578C36.0162 10.1324 36.0428 10.2891 36.0562 10.4158H36.0962C36.1095 10.3291 36.1295 10.2224 36.1562 10.0958C36.1828 9.96245 36.2095 9.82578 36.2362 9.68578C36.2695 9.53911 36.2995 9.39911 36.3262 9.26578C36.3595 9.13245 36.3928 9.02245 36.4262 8.93578L37.2862 6.02578H38.4462L39.2862 8.93578C39.3262 9.06911 39.3695 9.22911 39.4162 9.41578C39.4628 9.59578 39.5028 9.77578 39.5362 9.95578C39.5762 10.1291 39.6028 10.2791 39.6162 10.4058H39.6562C39.6695 10.2924 39.6928 10.1458 39.7262 9.96578C39.7595 9.77911 39.7995 9.57911 39.8462 9.36578C39.8995 9.15245 39.9495 8.94911 39.9962 8.75578L40.7162 6.02578H41.7862L40.2762 11.4158H39.0662L38.2962 8.72578Z" fill="#9E9E9E"/>
</svg>
